<?xml version="1.0" encoding="UTF-8"?>
<!DOCTYPE svg PUBLIC "-//W3C//DTD SVG 1.1//EN" "http://www.w3.org/Graphics/SVG/1.1/DTD/svg11.dtd">
<!-- Creator: CorelDRAW Home & Student 2014 -->
<svg xmlns="http://www.w3.org/2000/svg" xml:space="preserve" width="32cm" height="32cm" version="1.1" style="shape-rendering:geometricPrecision; text-rendering:geometricPrecision; image-rendering:optimizeQuality; fill-rule:evenodd; clip-rule:evenodd"
viewBox="0 0 32000 32000"
 xmlns:xlink="http://www.w3.org/1999/xlink">
 <defs>
  <style type="text/css">
   <![CDATA[
    .str0 {stroke:#96ADD4;stroke-width:50}
    .str1 {stroke:white;stroke-width:50}
    .str4 {stroke:black;stroke-width:150}
    .str3 {stroke:black;stroke-width:250}
    .str2 {stroke:#CCCCCC;stroke-width:500}
    .fil8 {fill:none}
    .fil9 {fill:#1E3152}
    .fil0 {fill:white}
    .fil5 {fill:black;fill-rule:nonzero}
    .fil7 {fill:#1E3152;fill-rule:nonzero}
    .fil12 {fill:#F7883E;fill-rule:nonzero}
    .fil11 {fill:white;fill-rule:nonzero}
    .fil13 {fill:url(#id10)}
    .fil1 {fill:url(#id11)}
    .fil10 {fill:url(#id12)}
    .fil2 {fill:url(#id13)}
    .fil3 {fill:url(#id14)}
    .fil6 {fill:url(#id15)}
    .fil4 {fill:url(#id16)}
   ]]>
  </style>
   <mask id="id0">
  <linearGradient id="id1" gradientUnits="userSpaceOnUse" x1="11803.4" y1="11606.2" x2="9530.28" y2="10006.6">
   <stop offset="0" style="stop-opacity:1; stop-color:white"/>
   <stop offset="1" style="stop-opacity:0; stop-color:white"/>
  </linearGradient>
    <rect style="fill:url(#id1)" x="7432" y="7352" width="6469" height="6908"/>
   </mask>
    <mask id="id2">
  <linearGradient id="id3" gradientUnits="userSpaceOnUse" x1="8012.61" y1="9116.58" x2="10050.8" y2="10595.2">
   <stop offset="0" style="stop-opacity:1; stop-color:white"/>
   <stop offset="1" style="stop-opacity:0; stop-color:white"/>
  </linearGradient>
     <rect style="fill:url(#id3)" x="6406" y="6775" width="5251" height="6163"/>
    </mask>
    <mask id="id4">
  <linearGradient id="id5" gradientUnits="userSpaceOnUse" x1="8047.62" y1="9069.98" x2="10158.1" y2="10601.1">
   <stop offset="0" style="stop-opacity:1; stop-color:white"/>
   <stop offset="1" style="stop-opacity:0; stop-color:white"/>
  </linearGradient>
     <rect style="fill:url(#id5)" x="6374" y="6660" width="5459" height="6352"/>
    </mask>
    <mask id="id6">
  <linearGradient id="id7" gradientUnits="userSpaceOnUse" x1="11574.5" y1="10348.6" x2="9673.82" y2="9044.24">
   <stop offset="0" style="stop-opacity:1; stop-color:white"/>
   <stop offset="1" style="stop-opacity:0; stop-color:white"/>
  </linearGradient>
     <rect style="fill:url(#id7)" x="7179" y="6229" width="6890" height="6935"/>
    </mask>
    <mask id="id8">
  <linearGradient id="id9" gradientUnits="userSpaceOnUse" x1="10219.9" y1="10668.3" x2="8739.45" y2="9652.34">
   <stop offset="0" style="stop-opacity:1; stop-color:white"/>
   <stop offset="1" style="stop-opacity:0; stop-color:white"/>
  </linearGradient>
     <rect style="fill:url(#id9)" x="7054" y="7084" width="4852" height="6153"/>
    </mask>
  <linearGradient id="id10" gradientUnits="userSpaceOnUse" x1="22675.9" y1="19679.2" x2="9451.92" y2="20252.9">
   <stop offset="0" style="stop-color:#FF6600"/>
   <stop offset="0.941176" style="stop-color:#FFB27F"/>
   <stop offset="1" style="stop-color:#FEFEFE"/>
  </linearGradient>
  <linearGradient id="id11" gradientUnits="userSpaceOnUse" x1="12370.4" y1="11881.5" x2="8963.25" y2="9731.33">
   <stop offset="0" style="stop-color:#8A1515"/>
   <stop offset="1" style="stop-color:#C24B4B"/>
  </linearGradient>
  <linearGradient id="id12" gradientUnits="userSpaceOnUse" x1="9375.38" y1="9135.32" x2="11872.9" y2="10257.5">
   <stop offset="0" style="stop-color:#E87C17"/>
   <stop offset="1" style="stop-color:#FACD93"/>
  </linearGradient>
  <linearGradient id="id13" gradientUnits="userSpaceOnUse" xlink:href="#id12" x1="8195.56" y1="9536.27" x2="10153.1" y2="10415.8">
  </linearGradient>
  <linearGradient id="id14" gradientUnits="userSpaceOnUse" x1="22746.6" y1="11703.8" x2="22628.9" y2="11076.1">
   <stop offset="0" style="stop-color:#336699"/>
   <stop offset="1" style="stop-color:#AEC0D4"/>
  </linearGradient>
  <linearGradient id="id15" gradientUnits="userSpaceOnUse" x1="21868" y1="11462.3" x2="21292.9" y2="10457.5">
   <stop offset="0" style="stop-color:#A39E9E"/>
   <stop offset="1" style="stop-color:#FEFEFE"/>
  </linearGradient>
  <radialGradient id="id16" gradientUnits="objectBoundingBox" cx="28%" cy="37.0001%" r="41%" fx="28%" fy="37.0001%">
   <stop offset="0" style="stop-color:#A1B1CC"/>
   <stop offset="1" style="stop-color:#263854"/>
  </radialGradient>
 </defs>
 <g id="VISBY">
  <metadata id="CorelCorpID_0Corel-Layer"/>
  <path class="fil0 str0" d="M17047 12300c-38,28 -23,23 -49,78l-11 20c-10,16 1,-5 -15,21l-30 60c-67,45 -80,84 -122,150l-37 60c-33,54 -38,29 -90,134l-60 76c-145,108 -238,131 -316,220l-15 0 -30 30 -159 201c-36,56 -16,60 -84,141 -28,33 -62,45 -49,137l8 30c0,2 2,6 2,8l-1 198c39,10 12,-1 45,15 36,54 57,31 16,174 -30,107 -14,61 1,149 6,36 -2,68 -2,139 33,16 48,9 77,25l30 121c3,65 14,20 -3,92 45,1 78,21 112,85 1,1 2,5 3,6l34 -2c20,34 -4,65 30,134 -94,25 -71,148 -69,257 1,101 36,-31 1,152 -23,123 8,46 -81,158 -66,82 -59,33 -101,92 -91,125 -94,-29 -138,161l-13 51c-33,124 -2,118 47,154 72,52 45,86 100,63l29 -17c27,41 9,33 61,47 -12,51 -15,41 -12,106 6,130 35,20 12,296 2,1 6,-1 6,2 1,2 6,1 7,2 1,0 6,2 7,2 1,1 5,3 7,4 83,54 -1,153 -4,156 -34,28 -36,-41 -38,72 66,31 55,-27 81,82 8,34 8,27 8,67 99,8 28,6 119,-15 33,49 39,21 45,90l45 0c10,-39 -6,-17 30,-30 -21,39 -29,43 -30,104 -46,34 -24,-9 -30,60 44,10 21,-2 45,29 -32,60 -25,51 -18,91 6,39 7,-10 4,25l-31 113c-12,58 -4,46 -46,98 -45,54 -27,62 16,91 22,18 28,34 71,25l40 -25c108,-72 67,14 117,-100 40,-91 120,-103 122,-104 25,-17 10,-9 16,-23 2,-5 -1,-29 36,-56 36,77 6,19 -2,57 -2,9 -7,8 -5,30 3,36 -6,-6 15,38 42,88 -6,66 -26,182 -16,94 7,39 -44,144 -13,27 -15,37 -46,49l-27 6c-93,18 -125,-29 -194,30 -30,25 -17,20 -26,30 -33,39 -37,19 -54,54 -50,102 9,122 22,139 -55,64 -57,62 -15,149 -62,30 -37,4 -71,46 -35,45 -99,132 -121,194l-70 151c-1,1 -3,5 -4,6l-43 66c-1,2 -3,5 -4,7 -49,75 -12,45 -29,126 125,-3 27,-35 117,-3 26,9 -5,18 32,3 58,-51 51,11 104,-45 12,55 8,48 45,75 34,-8 36,-14 58,-26l198 -120c56,-46 26,-48 205,-48 7,-82 13,-45 75,-74 -4,-40 -7,-41 -15,-75 27,-13 19,-11 59,-15 -6,-76 -11,-20 -29,-89l85 -66c35,-32 33,-63 73,-81 46,-21 45,-1 50,-62 -90,-7 -9,17 -44,-59 114,-10 48,3 193,15 -3,-41 -1,-32 -15,-60 -64,-121 -140,-51 -164,-45 -30,-42 -112,-50 -74,-178 40,-131 15,18 26,-155l11 -34c1,-3 8,-13 10,-17 7,-16 3,7 13,-33l-60 0c0,-71 -21,-78 7,-105 37,-36 33,45 23,-73 82,-2 40,16 88,-61 47,-77 35,-77 87,-81 63,-5 5,22 63,-37 10,-10 20,-20 30,-30 81,-73 109,-12 169,-51 33,-21 11,-4 25,-68 -11,-1 -48,-8 -51,-8l-39 8c-135,-29 -129,6 -164,30l-41 -48c42,-65 56,-21 56,-131 109,23 6,-38 154,-87 32,-11 25,1 51,-17 23,-16 17,-22 19,-90 30,32 23,21 134,30 2,-88 20,-70 79,-116l180 -107c32,-12 84,-6 116,-55 10,-15 6,38 12,-35 -70,0 -67,-2 -119,-15 52,-97 40,-55 70,-72 52,-27 34,-50 87,-56 3,-1 40,4 44,4 59,0 17,-4 128,-23 69,-13 37,21 58,-31 23,26 20,18 30,59 148,-12 58,-80 149,-104 5,64 -2,27 30,74 38,-4 72,-22 82,-49 1,-2 3,-22 7,-40l-116 -41c-26,-15 -18,-11 -33,-33 66,-44 73,-18 194,-15 0,-72 -22,-83 7,-141 17,-36 57,-60 82,-98 45,22 103,37 149,15 60,-59 -47,-92 -17,-173l17 -50c-201,-47 -139,33 -162,80 0,0 -61,64 -71,75 -110,117 -288,-66 -186,-217 24,-35 50,-48 76,-87 42,-28 69,-53 120,-30 0,-103 -1,-113 54,-170 2,-1 20,-19 21,-19 24,-20 26,-9 38,-38l5 -14c0,-2 1,-6 2,-8l13 -28c7,-11 3,-2 17,-26l40 -44c1,-1 21,-8 32,-13 56,-27 95,-61 144,-57 110,9 -62,18 33,5 59,-8 29,-21 47,-44 66,-84 73,21 107,-44 3,-7 3,-96 92,-109 48,-7 77,3 69,43l-14 74c89,-2 39,4 55,-18l7 -24c13,-46 -4,-22 18,-46l43 -23c70,-35 94,-151 100,-231l-59 0c-65,-96 -35,2 -71,-113 -15,-52 10,-18 -27,-43 -31,-22 -87,-16 -94,-13 -24,16 -10,-13 -26,47 0,3 -1,7 -2,9 -19,84 25,-38 -4,23 -85,-7 -20,-17 -110,-42l-18 -5c-25,-6 19,-9 -26,-6 -46,3 -28,-3 -39,39 -20,-15 -23,-20 -37,-31 -22,-17 -2,11 -28,-25 -2,-2 -4,-6 -5,-7 -1,-2 -3,-6 -4,-8 -16,-28 -12,-33 -61,-34 15,-62 29,-73 75,-104 -10,-39 1,-12 -15,-45l-14 -17c-62,-55 -61,-26 -78,-9 -35,35 50,-2 -22,29 -26,11 -10,2 -65,-3 22,-33 17,-17 24,-48 2,-9 5,-39 6,-71 39,18 29,11 75,0 -29,-108 -92,-26 -60,-164 -55,-14 -92,-33 -60,-89l15 -15c53,-50 12,-28 40,-63 36,-46 -14,-18 65,-11 5,-66 18,-90 74,-105 -2,-94 -10,-30 -30,-104 55,0 57,2 76,-17 62,-64 -18,-24 -40,-106l-21 -71 0 -15c-26,-65 -4,4 4,-41 16,-85 83,-194 -13,-219 0,0 -41,-5 -62,-11 -135,-37 -49,-100 -18,-146 -30,-127 -15,11 -15,-149l119 -29c1,-51 14,-58 10,-103 -4,-33 -24,-37 -7,-77 0,-1 16,-24 20,-36 9,-31 8,-15 4,-49l-27 -78c-48,13 -29,14 -78,36l-28 11c-1,0 0,32 -19,-9 -15,-33 0,-69 15,-86 1,-1 4,-4 5,-5l22 -16c1,-1 6,-4 9,-6 47,18 21,-32 29,45 115,-9 76,-116 75,-134 74,-16 30,10 113,-6 3,-1 7,-3 10,-4 90,-21 117,-15 155,-113 19,-49 8,-4 20,-56 41,14 5,-4 17,14 29,39 55,135 55,135 8,23 -18,30 77,30 3,-149 33,-124 59,-134 18,-8 3,-35 43,10 42,47 -12,-21 17,50 190,-41 7,-96 56,-266 22,-75 -11,-125 -11,-271 66,36 29,45 59,79 25,30 62,39 134,55 -4,-47 -11,-141 -30,-178 64,-30 -71,17 25,-2 34,-7 13,6 35,-13 20,-17 23,-45 30,-75l30 0c-13,-157 21,-128 0,-178 105,-3 44,-3 75,-38 13,-15 53,-38 74,-52 23,112 -17,83 59,90 11,-40 -1,-13 15,-45 95,25 -10,146 134,149 -7,-309 -90,-255 -126,-321 -12,-21 -11,-47 -27,-78 -29,-56 14,-19 -48,-30 -205,-36 -30,-9 -99,-120 -60,-97 -44,-26 -27,-100 0,-2 2,-7 2,-9 1,-2 1,-7 2,-9l10 -63 0 -15c27,-64 -25,-47 -44,-119l-45 0c-15,36 0,20 -39,35l-42 6c-3,0 -7,1 -10,1 -2,0 -7,1 -9,1 -21,4 -60,17 -111,0l-77 -38c-94,-79 -55,-15 -144,-51 -131,-53 -44,-1 -143,5 -39,2 -23,-8 -70,4 -2,1 -7,2 -9,3 -2,1 -6,2 -8,3 -44,18 -103,159 -83,224 11,36 44,39 53,64 42,111 -134,49 -137,197l-26 97c-17,46 -31,54 -33,112 -1,27 -5,37 -6,82 -79,-7 -28,-6 -36,-70 -7,-52 0,13 -10,-43 0,-3 -1,-7 -1,-10l-32 -173c-14,-71 3,-95 -7,-138 0,-2 -2,-6 -3,-8l-43 -143c-7,-39 -8,-54 -13,-67 -22,-59 -39,-141 -101,-162 -85,-28 -81,19 -149,47 -43,17 -51,13 -77,53l-15 20c-21,22 -32,26 -57,46l-138 108c-31,16 -55,30 -69,65l-14 53c-24,97 -10,331 -148,340 -51,4 2,6 -48,-28 -47,-32 -6,-23 -82,-24 -12,37 -70,34 -107,93 -19,31 15,-5 -18,24 -58,52 -26,-22 -53,46l-30 0c-30,-112 -192,13 -232,67l-202 497c-27,124 -107,233 -165,342 -13,26 -29,58 -44,90 -16,33 -26,61 -42,92z"/>
 </g>
 <g id="FOK" visibility="hidden">
  <metadata id="CorelCorpID_1Corel-Layer"/>
  <path class="fil1" style="mask:url(#id0)" d="M11657 7353l-4224 5488c2186,-170 3105,-519 4140,-1012 -322,-1460 -584,-2251 84,-4476z"/>
  <path class="fil2" d="M11657 6775l-4965 6153c1628,170 2788,250 4565,-204 -349,-2691 -440,-2571 400,-5949z"/>
 </g>
 <g id="FOK_x0020_TYŁ" visibility="hidden">
  <metadata id="CorelCorpID_2Corel-Layer"/>
  <path class="fil3" d="M21492 12784c789,-191 932,-250 1352,-506 235,-272 944,-1233 1053,-2286 -137,514 -201,1009 -1098,1910 -318,286 -770,603 -1307,870l-14 16 14 -4z"/>
 </g>
 <g id="GENAKER" visibility="hidden">
  <metadata id="CorelCorpID_3Corel-Layer"/>
  <g>
   <path class="fil4" style="mask:url(#id2)" d="M11657 6775c-2242,488 -3295,1311 -3762,1911 -468,600 -1279,1353 -1489,4251 2199,-8 4941,-1487 5068,-1594 -168,-258 -669,-1000 -760,-2175 -91,-1175 943,-2393 943,-2393z"/>
   <path id="1" class="fil5" style="mask:url(#id4)" d="M7912 8757l-35 -142 0 0 46 -57 49 -58 53 -60 57 -60 60 -61 65 -62 68 -63 73 -63 77 -64 82 -64 86 -65 91 -64 95 -65 101 -65 105 -64 110 -65 116 -64 121 -63 126 -63 132 -63 138 -61 143 -61 149 -60 155 -59 161 -57 167 -57 174 -55 180 -53 187 -53 193 -50 200 -48 207 -47 26 147 -206 47 -200 49 -193 50 -187 52 -179 53 -174 55 -167 57 -161 57 -155 59 -149 60 -143 61 -137 61 -132 62 -126 63 -120 64 -116 64 -110 64 -105 64 -100 65 -95 64 -91 65 -85 64 -82 64 -76 63 -73 63 -68 63 -64 61 -61 61 -56 60 -53 59 -48 58 -46 57 0 0zm-1518 4106l24 148 -36 -120 22 -268 25 -255 28 -243 31 -232 34 -220 37 -210 39 -199 41 -189 44 -179 46 -170 47 -161 49 -152 51 -144 51 -136 53 -129 54 -121 54 -115 56 -108 55 -102 56 -97 55 -91 56 -86 55 -81 55 -78 54 -73 54 -70 52 -67 51 -64 50 -62 48 -59 47 -58 45 -57 35 142 -45 57 -46 58 -49 59 -50 62 -51 64 -52 66 -53 70 -54 73 -54 77 -55 81 -55 85 -56 91 -55 95 -55 101 -54 107 -54 114 -54 120 -52 127 -51 134 -50 143 -48 150 -47 159 -45 168 -43 176 -41 187 -39 196 -36 207 -33 217 -31 228 -28 240 -24 251 -22 264 -36 -121zm24 148l-44 0 8 -120 36 120zm5056 -1605l0 -127 16 136 -20 15 -35 21 -48 29 -62 35 -75 41 -88 46 -99 52 -111 55 -121 60 -131 63 -141 66 -150 68 -159 70 -166 71 -173 72 -180 72 -186 72 -192 71 -196 69 -201 68 -204 66 -208 62 -210 59 -213 56 -214 50 -214 46 -215 40 -215 35 -214 27 -212 21 -211 13 -208 5 -24 -148 208 -5 210 -13 212 -20 213 -28 215 -34 214 -41 215 -45 213 -51 213 -55 210 -59 207 -63 205 -65 200 -68 196 -70 192 -70 186 -72 180 -72 173 -72 166 -71 158 -70 150 -68 140 -66 132 -63 121 -59 110 -56 100 -51 87 -47 75 -40 62 -35 48 -29 34 -21 19 -14 16 136zm0 -127l63 96 -47 40 -16 -136zm-784 -2132l48 42 0 0 9 103 12 101 13 98 15 95 17 93 18 90 21 89 21 85 23 84 24 81 25 80 26 77 26 74 28 72 28 70 29 68 28 65 29 63 29 60 29 57 29 55 28 53 27 50 27 47 26 44 26 42 24 39 23 36 21 34 20 31 19 28 16 26 0 127 -17 -25 -19 -29 -20 -31 -22 -34 -24 -38 -24 -40 -26 -43 -27 -46 -28 -48 -29 -52 -29 -54 -30 -58 -30 -60 -30 -63 -31 -66 -30 -69 -30 -72 -30 -75 -30 -77 -29 -81 -28 -84 -28 -87 -26 -90 -26 -93 -24 -96 -22 -98 -21 -102 -19 -105 -17 -107 -15 -109 -12 -112 -11 -115 0 0zm980 -2299l-26 -147 30 145 -3 3 -8 11 -14 17 -19 23 -23 30 -27 35 -31 42 -34 47 -37 52 -40 57 -42 62 -43 67 -45 71 -45 75 -46 79 -47 82 -45 86 -46 89 -44 92 -43 95 -40 97 -39 99 -36 102 -33 102 -29 104 -25 105 -22 105 -16 106 -12 105 -6 103 -1 102 5 98 -48 -42 -6 -122 1 -119 7 -117 13 -114 18 -113 22 -110 26 -109 30 -107 34 -106 37 -103 39 -101 41 -98 44 -96 44 -93 46 -90 46 -87 47 -83 46 -79 46 -76 45 -71 44 -67 42 -63 40 -57 37 -53 34 -47 31 -42 28 -36 23 -30 19 -23 14 -17 9 -11 3 -4 30 145zm-26 -147l188 -41 -158 186 -30 -145z"/>
  </g>
 </g>
 <g id="GROT_x0020_TYŁ" visibility="hidden">
  <metadata id="CorelCorpID_4Corel-Layer"/>
  <path class="fil6" d="M18784 13064c1157,0 2229,-130 2797,-441 853,-499 2258,-2147 2796,-3768 -734,1719 -3168,3100 -5593,4209z"/>
 </g>
 <g id="TEKST">
  <metadata id="CorelCorpID_5Corel-Layer"/>
  <path class="fil7 str1" d="M12364 12949l-486 0 407 -1940 485 0 -406 1940zm895 -1941l484 0c153,0 281,17 383,51 102,34 175,85 218,151 43,66 55,146 36,238l-48 227c-20,95 -65,177 -137,245 -71,68 -166,120 -283,155 -1,1 -3,1 -4,2l237 872 -520 0 -179 -820 -163 0m66 -318l255 0c41,0 78,-5 111,-15 33,-10 60,-25 79,-44 20,-19 32,-42 38,-69l45 -216c6,-29 4,-55 -7,-76 -11,-22 -31,-38 -60,-49 -28,-11 -63,-16 -104,-16l-255 0 -102 485zm-66 318l-172 820 -475 0 406 -1941 476 0m1483 1961c-149,0 -273,-19 -372,-56 -99,-38 -169,-93 -211,-164 -42,-72 -52,-158 -31,-259l21 -104 484 -2 -21 104c-11,49 1,87 36,115 34,28 88,42 160,42 70,0 127,-13 171,-41 45,-28 72,-65 82,-114l36 -169c7,-36 -1,-67 -25,-93 -24,-26 -57,-49 -99,-68 -43,-19 -101,-42 -175,-69 -5,-2 -9,-3 -13,-5 -5,-2 -9,-3 -14,-5l-24 -8c-97,-37 -180,-75 -246,-114 -66,-40 -117,-92 -153,-157 -36,-65 -44,-145 -24,-240l21 -101c21,-98 67,-183 137,-254 70,-70 162,-125 275,-162 114,-37 245,-56 394,-56 145,0 265,19 361,56 97,37 165,92 205,164 40,71 49,157 28,258l-23 109 -484 4 23 -110c10,-50 0,-89 -31,-117 -31,-28 -81,-42 -147,-42 -71,0 -127,13 -171,38 -44,25 -70,60 -80,105l-27 129c-7,36 0,68 22,95 23,27 53,49 92,67 38,18 93,40 163,66 13,5 27,9 41,15 14,5 28,11 43,16 2,1 4,2 6,2 2,1 3,2 6,3 100,39 180,76 240,109 59,33 106,80 140,141 34,60 42,138 22,232l-34 161c-21,101 -66,187 -137,259 -70,71 -163,126 -276,164 -113,37 -244,56 -391,56zm-1567 1098l-122 580c-21,101 -67,189 -138,262 -70,72 -163,129 -277,167 -113,39 -244,58 -391,58 -150,0 -275,-19 -374,-56 -99,-37 -169,-92 -211,-163 -42,-71 -52,-156 -32,-254l211 -1007c22,-104 68,-193 139,-268 71,-75 164,-133 278,-173 113,-39 245,-59 392,-59 145,0 265,19 361,57 95,38 163,94 203,167 39,73 48,161 27,262l-31 149 -500 0 32 -149c6,-32 4,-59 -7,-81 -11,-22 -30,-40 -56,-52 -27,-12 -60,-18 -100,-18 -42,0 -81,7 -116,20 -35,13 -63,32 -85,57 -22,25 -37,55 -44,88l-211 1007c-6,27 -2,52 12,72 13,21 35,38 66,48 32,11 71,17 116,17 47,0 89,-6 126,-17 37,-12 67,-29 90,-51 23,-22 38,-49 44,-80l56 -266 -239 0 66 -317 715 0zm737 1067c-153,0 -280,-18 -382,-54 -101,-36 -173,-88 -216,-156 -43,-68 -55,-150 -35,-246l224 -1068c20,-96 66,-178 138,-247 71,-68 166,-120 282,-156 116,-35 251,-53 404,-53 152,0 279,18 380,53 102,36 175,88 217,156 43,69 54,151 34,247l-223 1068c-20,96 -67,178 -137,246 -72,68 -167,120 -283,156 -116,36 -251,54 -403,54zm69 -331c50,0 94,-7 133,-20 37,-13 69,-33 92,-57 23,-25 39,-55 47,-91l206 -985c7,-34 4,-64 -9,-89 -12,-25 -36,-44 -68,-57 -34,-14 -75,-20 -124,-20 -51,0 -94,7 -132,20 -38,13 -69,32 -92,57 -23,25 -39,55 -46,89l-207 985c-7,35 -4,66 9,91 12,24 35,44 68,57 32,13 73,20 123,20zm2072 -1312l-340 1623 -485 0 340 -1623m0 0l-469 0 66 -317 1425 0 -67 317 -470 0m809 1623l-485 0 406 -1940 485 0 -340 1623m0 0l740 0 -66 317 -1025 0m2308 -611l-53 -661 -329 661m-154 310l-151 301 -481 0 1085 -1940 341 0 273 1940 -482 0 -24 -301m-407 -310l382 0m25 310l-561 0m1920 -826l-235 1126 -444 0 406 -1939 381 0 367 1192m0 0l249 -1192 442 0 -406 1939 -385 0 -375 -1126m1800 -813l413 0c135,0 248,17 338,51 89,34 153,85 189,150 37,65 46,143 28,234l-225 1070c-19,90 -61,169 -125,234 -64,66 -149,116 -253,150 -104,34 -225,51 -360,51l-411 0m229 -317l201 0c66,0 119,-14 160,-41 40,-27 66,-65 76,-114l209 -996c10,-49 0,-87 -29,-114 -29,-27 -77,-41 -142,-41l-202 0m0 0l-273 1306m-67 317l-485 0 407 -1940 485 0m-10022 4125c-143,0 -262,-20 -356,-58 -93,-38 -160,-95 -198,-169 -39,-73 -47,-163 -25,-267l208 -993c22,-104 67,-193 137,-267 69,-73 159,-130 269,-168 110,-39 236,-58 380,-58 143,0 262,19 356,58 95,38 161,95 199,169 38,74 46,164 24,268l-32 156 -492 0 33 -156c7,-33 5,-62 -4,-86 -9,-23 -27,-43 -53,-55 -27,-13 -61,-19 -101,-19 -39,0 -75,6 -106,18 -31,13 -57,31 -77,55 -19,24 -33,53 -40,85l-208 993c-7,32 -5,61 5,85 10,23 28,42 54,54 26,12 59,19 97,19 43,0 79,-7 110,-19 31,-12 57,-31 76,-54 19,-24 32,-52 39,-86l33 -156 492 0 -33 156c-22,104 -67,193 -136,267 -70,75 -160,132 -270,170 -110,38 -237,58 -381,58zm1524 0c-140,0 -259,-20 -352,-58 -94,-38 -161,-95 -199,-168 -38,-73 -46,-162 -25,-264l308 -1470 487 0 -310 1479c-10,47 0,84 28,111 28,26 73,39 132,39 62,0 113,-13 153,-39 40,-27 64,-63 74,-111l310 -1479 488 0 -308 1470c-21,102 -68,190 -137,264 -69,73 -160,130 -270,168 -110,38 -237,58 -379,58zm1561 -1960l517 0c140,0 258,17 351,51 93,33 160,83 198,148 38,65 48,145 29,236l-69 327c-19,89 -62,166 -128,230 -65,63 -152,112 -260,145 -107,33 -231,50 -370,50l-259 0m67 -317l245 0c39,0 74,-7 105,-19 31,-12 58,-31 78,-55 20,-23 35,-52 42,-85l48 -228c7,-35 5,-65 -4,-90 -10,-24 -28,-44 -54,-56 -26,-13 -60,-20 -99,-20l-245 0m0 0l-116 553m-67 317l-162 771 -484 0 410 -1958 485 0"/>
 </g>
 <g id="Warstwa_x0020_1" visibility="hidden">
  <metadata id="CorelCorpID_6Corel-Layer"/>
  <path class="fil8 str2" d="M18597 5070c-3912,2907 -4409,4207 -5505,7832 2573,-9 5781,-1740 5930,-1866 -196,-301 -782,-1170 -889,-2545 -107,-1375 464,-3421 464,-3421z"/>
 </g>
 <g id="Warstwa_x0020_2" visibility="hidden">
  <metadata id="CorelCorpID_7Corel-Layer"/>
  <path class="fil8 str3" d="M17412 5705c-3709,2756 -4180,3989 -5220,7426 2440,-9 5482,-1650 5624,-1769 -187,-286 -742,-1110 -844,-2413 -101,-1304 440,-3244 440,-3244z"/>
 </g>
 <g id="Warstwa_x0020_3" visibility="hidden">
  <metadata id="CorelCorpID_8Corel-Layer"/>
  <path class="fil8 str4" d="M16225 6492c-3342,2484 -3766,3595 -4703,6692 2198,-8 4940,-1487 5067,-1594 -168,-258 -668,-1000 -760,-2175 -91,-1175 396,-2923 396,-2923z"/>
 </g>
 <g id="GENAKER_x0020_Kontur">
  <metadata id="CorelCorpID_9Corel-Layer"/>
  <g>
   <path class="fil9" d="M11182 15209c-490,-2678 795,-4129 795,-4129 -4342,318 -4422,3320 -4137,5831 2535,-353 3337,-1707 3342,-1702z"/>
   <path id="1" class="fil7" d="M11989 11154l-25 -148 30 145 -3 4 -11 13 -17 21 -23 29 -28 37 -32 46 -37 55 -41 62 -43 70 -46 79 -48 86 -49 95 -50 103 -51 110 -50 118 -49 126 -47 134 -46 141 -43 149 -40 157 -36 164 -32 171 -27 178 -22 185 -16 192 -9 199 -3 205 5 212 12 218 21 224 30 231 39 239 -40 10 -43 -256 -32 -249 -22 -242 -14 -233 -5 -225 3 -216 10 -209 17 -200 22 -191 28 -184 33 -176 37 -167 41 -160 44 -152 46 -143 48 -136 50 -128 50 -119 51 -112 51 -104 50 -95 48 -88 46 -79 44 -71 41 -63 37 -55 33 -46 29 -38 23 -30 17 -21 11 -13 4 -5 29 146zm-25 -148l170 -13 -140 158 -30 -145zm-4137 5831l26 148 -36 -86 -26 -240 -23 -242 -19 -245 -15 -246 -10 -247 -4 -247 2 -246 10 -245 17 -243 27 -241 35 -237 46 -233 56 -228 68 -224 80 -218 93 -211 106 -205 121 -198 136 -190 151 -182 168 -173 184 -163 203 -153 221 -143 240 -132 260 -120 281 -107 302 -95 325 -81 347 -68 371 -53 394 -37 25 148 -394 37 -370 53 -347 67 -323 81 -302 95 -280 107 -260 120 -239 131 -220 142 -202 153 -183 162 -167 172 -150 180 -134 189 -120 195 -105 203 -91 208 -79 214 -66 219 -55 224 -45 227 -35 230 -25 232 -17 235 -9 236 -2 238 4 237 9 238 15 238 19 237 22 236 25 234 -36 -87zm26 148l-26 4 -10 -90 36 86zm3309 -1771l40 -10 -15 75 10 4 -7 11 -13 18 -18 25 -24 31 -29 37 -34 42 -41 47 -46 52 -53 56 -59 59 -66 63 -72 66 -80 67 -86 70 -94 71 -101 73 -108 72 -117 73 -124 73 -132 72 -141 71 -149 70 -158 67 -166 65 -176 62 -184 59 -194 55 -203 51 -213 47 -223 41 -233 36 -26 -148 233 -36 222 -41 213 -46 203 -51 193 -55 185 -59 175 -62 166 -65 157 -67 149 -69 140 -71 132 -72 124 -73 116 -72 108 -73 101 -72 93 -71 86 -69 79 -68 72 -65 66 -62 58 -59 53 -56 46 -51 40 -47 34 -42 29 -37 23 -30 18 -25 12 -18 8 -11 17 -3 -16 75zm40 -10l21 111 -36 -36 15 -75z"/>
  </g>
 </g>
 <g id="GENUA_x0020_Kontur" visibility="hidden">
  <metadata id="CorelCorpID_10Corel-Layer"/>
  <g>
   <path class="fil10" style="mask:url(#id6)" d="M11812 7297l-4633 5742c1519,158 2602,232 4260,-191 -325,-2511 -411,-2399 373,-5551z"/>
   <path id="1" class="fil7" style="mask:url(#id8)" d="M7158 12968l4633 -5742 43 141 -4633 5742 -6 3 -37 -144zm37 144l-141 -15 104 -129 37 144zm4220 -289l49 50 -7 48 -153 38 -151 36 -148 32 -145 30 -142 27 -140 25 -137 23 -136 20 -133 17 -132 16 -131 13 -129 11 -128 9 -126 7 -127 6 -125 3 -125 2 -125 1 -125 -2 -125 -2 -125 -5 -126 -5 -127 -7 -127 -8 -129 -9 -129 -10 -131 -11 -133 -12 -135 -12 -137 -14 -138 -14 -142 -14 -32 -146 141 14 139 14 136 14 135 12 133 12 131 11 130 10 128 9 127 8 127 7 125 6 126 4 125 2 124 2 125 -1 125 -1 125 -4 126 -5 127 -8 128 -9 129 -11 130 -13 132 -16 133 -17 135 -20 138 -22 139 -25 142 -28 145 -29 148 -33 150 -35 154 -39 -6 48zm49 50l6 45 -13 3 7 -48zm370 -5506l-43 -141 46 134 -71 286 -66 268 -61 251 -57 235 -51 220 -47 207 -43 194 -39 182 -34 171 -30 162 -26 153 -23 146 -18 140 -15 134 -12 130 -8 126 -5 125 -2 123 1 123 4 125 6 127 9 130 12 136 14 141 17 149 18 156 21 167 23 176 25 188 27 200 28 214 30 228 -49 -50 -30 -228 -28 -213 -27 -200 -25 -189 -23 -178 -21 -168 -19 -160 -17 -153 -15 -146 -12 -141 -10 -136 -7 -133 -4 -131 -1 -129 2 -128 6 -130 8 -130 12 -133 15 -138 19 -141 23 -148 27 -155 30 -163 34 -173 39 -183 43 -194 47 -207 52 -221 56 -235 62 -251 66 -268 71 -287 46 134zm-43 -141l114 -142 -68 276 -46 -134z"/>
  </g>
 </g>
 <g id="FOK_x0020_KONTUR">
  <metadata id="CorelCorpID_11Corel-Layer"/>
  <g>
   <g>
    <path class="fil0" d="M11900 11784l-3627 4937c403,-2 808,-2 1210,-20 333,-15 666,-44 993,-115 334,-72 647,-185 956,-329l36 -16 33 70 -36 17c-314,146 -633,261 -973,334 -331,72 -668,102 -1006,117 -429,19 -861,17 -1290,20l-77 1 3983 -5422 -65 216c-169,564 -319,1149 -388,1735 -51,433 -52,851 -1,1284 49,413 140,823 230,1230l9 38 -76 17 -9 -38c-90,-410 -182,-822 -231,-1238 -52,-439 -51,-863 1,-1302 61,-517 184,-1034 328,-1536z"/>
    <path id="1" class="fil11" d="M8195 16762l3627 -4937 156 -82 -3627 4937 -154 99 -2 -17zm2 17l-15 0 13 -17 2 17zm1361 -136l-151 116 0 0 -38 2 -38 1 -37 2 -38 1 -38 1 -38 1 -38 1 -37 1 -38 1 -38 1 -38 1 -38 1 -38 0 -37 1 -38 0 -38 1 -38 0 -38 1 -38 0 -38 0 -37 1 -38 0 -38 0 -38 0 -38 0 -38 1 -37 0 -38 0 -38 0 -38 0 -38 1 -37 0 152 -116 38 0 38 0 38 -1 38 0 37 0 38 0 38 0 38 -1 38 0 37 0 38 0 38 -1 38 0 38 0 38 -1 37 0 38 0 38 -1 38 -1 38 0 37 -1 38 -1 38 0 38 -1 37 -1 38 -1 38 -2 37 -1 38 -1 38 -2 37 -1 38 -2 0 0zm987 -114l-138 114 0 0 -32 7 -31 6 -31 6 -31 6 -31 6 -31 5 -31 5 -31 5 -32 5 -31 5 -31 4 -31 4 -31 4 -32 4 -31 4 -31 3 -31 4 -31 3 -32 3 -31 3 -31 2 -32 3 -31 2 -31 3 -32 2 -31 2 -31 2 -32 2 -31 2 -31 1 -32 2 -31 1 151 -116 31 -1 31 -2 32 -1 31 -2 31 -2 31 -2 31 -2 31 -2 31 -2 32 -3 31 -2 31 -3 31 -3 30 -3 31 -3 31 -3 31 -4 31 -3 31 -4 31 -4 30 -4 31 -5 31 -4 30 -5 31 -5 31 -5 30 -5 31 -6 30 -5 30 -6 31 -7 30 -6 0 0zm929 -319l-83 94 0 0 -31 14 -30 14 -30 13 -31 14 -30 13 -30 13 -31 13 -30 12 -30 13 -31 12 -30 12 -31 11 -30 12 -31 11 -30 11 -31 11 -30 10 -31 11 -31 10 -31 9 -30 10 -31 9 -31 10 -31 8 -31 9 -32 8 -31 9 -31 8 -32 7 -31 8 -32 7 -31 7 138 -114 31 -7 30 -7 31 -7 30 -7 30 -8 31 -8 30 -8 29 -8 30 -9 30 -9 29 -9 30 -9 29 -9 29 -10 29 -9 29 -10 29 -11 29 -10 29 -10 28 -11 29 -11 28 -11 29 -11 28 -12 28 -12 28 -11 28 -12 28 -12 28 -13 28 -12 27 -13 28 -13 0 0zm-48 77l-35 17 83 -94 35 -16 42 -8 -125 101zm83 -93l38 -18 4 10 -42 8zm-92 172l-33 -70 167 -110 33 70 -125 102 -42 8zm167 -110l17 36 -142 66 125 -102zm-77 25l35 -17 -83 94 -35 16 0 0 83 -93zm-1084 438l138 -114 0 0 32 -7 31 -7 31 -7 31 -8 31 -8 30 -8 31 -8 30 -8 30 -9 31 -9 30 -9 30 -9 29 -10 30 -10 30 -10 29 -10 30 -10 29 -11 29 -10 29 -11 29 -11 29 -12 29 -11 29 -12 28 -12 29 -12 28 -12 29 -12 28 -13 28 -12 29 -13 28 -13 -83 93 -31 15 -31 14 -31 14 -31 13 -30 14 -31 13 -31 13 -31 13 -31 12 -31 12 -31 13 -31 11 -31 12 -31 11 -31 12 -31 10 -31 11 -31 11 -32 10 -31 10 -31 10 -32 9 -31 9 -32 9 -31 9 -32 9 -32 8 -32 8 -32 8 -32 8 -32 7 -32 7 0 0zm-1013 118l151 -116 0 0 32 -1 32 -2 31 -2 32 -1 32 -2 31 -2 32 -2 31 -2 32 -3 31 -2 31 -3 32 -3 31 -2 32 -3 31 -4 31 -3 32 -4 31 -3 31 -4 31 -4 31 -4 31 -5 32 -4 31 -5 31 -5 31 -5 30 -6 31 -5 31 -6 31 -6 31 -6 30 -7 -138 114 -32 7 -31 6 -32 6 -31 6 -32 6 -31 6 -32 5 -31 5 -32 5 -31 4 -32 5 -32 4 -31 4 -32 4 -31 4 -32 3 -32 4 -31 3 -32 3 -32 3 -31 3 -32 2 -32 3 -31 2 -32 3 -32 2 -32 2 -31 1 -32 2 -32 2 -32 1 -32 2 0 0zm-1290 20l152 -116 0 0 41 0 40 0 40 0 41 -1 40 0 40 0 41 0 40 0 40 -1 41 0 40 0 40 0 41 -1 40 0 40 0 41 -1 40 0 40 -1 40 0 41 -1 40 -1 40 0 41 -1 40 -1 40 -1 40 -1 41 -1 40 -2 40 -1 40 -2 40 -1 40 -2 -151 116 -40 2 -40 1 -40 2 -41 1 -40 1 -40 2 -41 1 -40 1 -40 1 -41 0 -40 1 -41 1 -40 0 -40 1 -41 1 -40 0 -40 0 -41 1 -40 0 -41 0 -40 1 -40 0 -41 0 -40 0 -40 1 -41 0 -40 0 -40 0 -40 0 -41 1 -40 0 -40 0 0 0zm75 -115l77 -1 -152 116 -78 1 -2 -18 155 -98zm-153 116l-14 0 12 -18 2 18zm4138 -5521l-3983 5422 -157 81 3984 -5422 161 -90 -5 9zm-156 81l227 -309 -66 219 -161 90zm-70 226l64 -216 167 -100 -64 216 0 0 -167 100zm-221 1633l-168 104 0 0 7 -55 7 -55 8 -55 8 -55 8 -55 9 -55 10 -55 9 -54 10 -55 11 -55 11 -55 11 -55 11 -54 12 -55 12 -54 13 -55 13 -54 13 -55 13 -54 13 -54 14 -54 14 -54 15 -54 14 -54 15 -54 15 -54 15 -53 15 -54 15 -53 16 -53 16 -53 16 -53 167 -100 -16 52 -16 54 -16 53 -15 53 -15 53 -15 54 -15 53 -15 54 -14 54 -14 54 -15 54 -13 54 -14 54 -13 54 -13 54 -13 54 -12 55 -12 54 -12 55 -12 54 -11 55 -11 54 -10 55 -10 55 -10 55 -9 54 -9 55 -8 55 -8 55 -8 55 -7 54 -7 55 0 0zm-1 1282l-168 107 0 0 -5 -41 -4 -40 -4 -40 -4 -41 -3 -40 -3 -40 -3 -40 -3 -41 -2 -40 -2 -40 -1 -40 -1 -40 -1 -40 -1 -39 -1 -40 0 -40 1 -40 0 -40 1 -40 1 -40 1 -40 2 -40 2 -40 2 -40 3 -40 3 -40 3 -41 4 -40 3 -40 4 -41 5 -40 4 -41 168 -104 -5 41 -4 40 -4 41 -4 40 -3 40 -3 40 -3 40 -3 40 -2 40 -2 40 -2 40 -1 40 -1 40 -1 40 -1 39 0 40 0 40 1 40 0 40 1 39 2 40 1 40 2 40 2 40 3 40 3 40 3 40 3 41 4 40 4 40 4 41 5 40 0 0zm230 1230l-168 108 0 0 -8 -38 -8 -38 -9 -39 -8 -38 -9 -38 -8 -38 -8 -39 -9 -38 -8 -38 -8 -38 -8 -39 -8 -38 -8 -38 -8 -39 -7 -38 -8 -39 -7 -38 -8 -39 -7 -38 -7 -39 -7 -38 -7 -39 -6 -38 -7 -39 -6 -39 -6 -38 -6 -39 -6 -39 -5 -39 -5 -38 -5 -39 -5 -39 168 -107 5 39 5 39 5 38 5 39 6 39 6 38 6 39 6 38 6 39 7 39 7 38 7 39 7 38 7 39 7 38 8 38 7 39 8 38 8 39 8 38 8 38 8 39 8 38 8 38 8 38 9 39 8 38 8 38 9 38 8 38 9 39 8 38 0 0zm-159 146l-9 -38 168 -108 8 38 -152 111 -15 -3zm167 -108l17 73 -169 38 152 -111zm-90 14l75 -17 -137 114 -76 16 -15 -2 153 -111zm-138 113l-14 3 -1 -5 15 2zm144 -148l8 38 -167 108 -9 -38 0 0 168 -108zm-399 -1131l168 -107 0 0 4 39 5 39 6 39 5 39 6 39 6 39 6 39 6 39 6 38 7 39 7 39 7 39 7 38 7 39 7 39 8 38 8 39 7 39 8 38 8 39 8 38 8 39 8 39 9 38 8 39 8 38 9 38 8 39 9 38 8 39 9 38 8 39 -168 108 -8 -39 -9 -38 -8 -39 -8 -38 -9 -39 -8 -38 -9 -38 -8 -39 -8 -38 -8 -39 -9 -39 -8 -38 -7 -39 -8 -38 -8 -39 -8 -39 -7 -38 -8 -39 -7 -39 -7 -39 -7 -38 -7 -39 -6 -39 -7 -39 -6 -39 -6 -39 -6 -39 -6 -39 -5 -39 -5 -39 -5 -39 -5 -39 0 0zm1 -1303l168 -104 0 0 -5 41 -4 41 -4 41 -4 41 -4 41 -3 40 -3 41 -2 41 -3 40 -2 41 -1 40 -2 41 -1 40 -1 40 0 41 -1 40 1 41 0 40 1 40 1 41 1 40 2 41 1 40 3 41 2 40 3 41 3 41 4 40 3 41 5 41 4 41 5 41 -168 107 -5 -41 -4 -41 -4 -41 -4 -41 -4 -41 -3 -41 -3 -40 -2 -41 -2 -41 -2 -40 -2 -41 -1 -40 -1 -41 -1 -40 0 -41 0 -40 0 -41 0 -40 1 -41 1 -40 2 -41 1 -40 2 -41 3 -41 2 -40 3 -41 3 -41 4 -41 4 -41 4 -41 4 -41 5 -41 0 0zm490 -1629l-156 82 161 -91 -13 47 -13 47 -13 47 -13 48 -13 47 -13 48 -13 47 -12 48 -12 47 -12 48 -12 48 -12 48 -11 48 -11 48 -11 48 -11 48 -10 48 -10 48 -10 48 -10 48 -9 48 -9 49 -9 48 -9 48 -8 49 -8 48 -7 48 -8 49 -6 48 -7 48 -6 49 -6 48 -168 104 6 -49 6 -48 7 -49 7 -48 7 -49 8 -48 8 -49 8 -48 8 -48 9 -49 9 -48 10 -49 9 -48 10 -48 11 -48 10 -49 11 -48 11 -48 11 -48 11 -48 12 -48 12 -48 12 -48 12 -47 12 -48 13 -48 12 -47 13 -48 13 -47 14 -47 13 -48 13 -47 162 -91zm-156 82l223 -304 -62 213 -161 91z"/>
   </g>
  </g>
  <g>
   <path class="fil12" d="M11756 15905l168 -108 0 1 0 2 0 1 -1 1 0 2 -1 2 -1 2 -2 2 -1 2 -2 2 -2 2 -2 2 -2 2 -2 3 -3 2 -2 3 -3 2 -3 3 -3 3 -3 2 -3 3 -4 3 -3 3 -4 2 -4 3 -3 3 -4 3 -4 3 -4 3 -5 2 -4 3 -4 3 -5 3 -4 2 -4 3 -4 3 -4 2 -4 2 -4 2 -4 2 -4 2 -4 2 -3 2 -4 2 -3 1 -4 2 -3 1 -3 1 -3 1 -3 1 -2 1 -3 1 -2 0 -2 1 -2 0 -2 0 -2 0 -1 0 -2 0 -1 -1 -1 0 -1 -1 0 -1 -1 -1zm322 -4363l-157 81 162 -91 -56 193 -52 185 -48 178 -43 172 -39 165 -36 160 -31 154 -27 149 -24 144 -20 140 -16 135 -14 132 -10 128 -7 125 -4 122 -1 120 1 118 4 116 7 114 9 114 11 113 13 112 16 112 17 113 19 113 20 114 23 116 23 117 25 119 26 121 27 124 28 127 -168 108 -28 -127 -27 -124 -26 -121 -24 -119 -24 -118 -22 -115 -21 -114 -19 -114 -17 -112 -15 -113 -14 -112 -11 -113 -9 -114 -7 -115 -4 -116 -1 -118 1 -120 4 -123 7 -126 10 -128 14 -132 16 -136 21 -140 23 -144 28 -150 31 -154 35 -160 39 -166 44 -172 48 -179 52 -185 56 -193 162 -90zm-157 81l228 -310 -66 219 -162 91zm-3803 5178l3803 -5178 157 -81 -3804 5178 -155 98 -1 -17zm1 17l-14 0 13 -17 1 17zm3371 -573l-83 94 -98 45 -97 42 -95 39 -94 36 -92 34 -91 31 -91 28 -90 27 -89 23 -89 22 -89 20 -90 18 -90 16 -91 14 -91 13 -93 11 -95 10 -95 9 -98 7 -100 7 -102 5 -104 5 -107 3 -110 4 -113 2 -116 2 -120 1 -123 2 -128 1 -131 0 -135 1 -141 1 153 -116 140 -1 136 0 131 -1 127 -1 124 -1 119 -2 116 -2 113 -2 109 -3 107 -4 104 -5 101 -5 99 -6 97 -8 95 -8 94 -10 91 -11 91 -13 89 -14 88 -16 88 -17 86 -19 87 -21 86 -23 86 -25 86 -28 86 -29 87 -31 87 -34 89 -37 89 -38 90 -42zm-83 94l83 -94 4 -1 4 -2 3 -1 3 -1 3 -2 3 -1 3 0 3 -1 2 -1 2 0 2 0 2 -1 2 0 1 0 2 1 1 0 1 1 1 0 0 1 1 1 0 1 0 1 0 1 -1 2 0 1 -1 2 -1 2 -1 1 -2 2 -1 3 -2 2 -2 2 -2 3 -3 2 -2 3 -3 2 -3 3 -3 3 -3 2 -3 3 -3 3 -4 3 -3 2 -4 3 -4 3 -3 3 -4 3 -4 2 -4 3 -4 3 -4 2 -4 3 -4 3 -4 2 -4 3 -4 2 -4 3 -4 2 -4 2 -4 2 -4 2 -4 2 -4 2 -4 2z"/>
  </g>
 </g>
 <g id="GROT_x0020_TYŁ_0">
  <metadata id="CorelCorpID_12Corel-Layer"/>
  <g>
   <path class="fil12" d="M21854 16852l95 11 -4 2 -42 17 -41 16 -43 15 -43 16 -44 15 -44 15 -46 14 -46 14 -47 14 -48 14 -49 14 -51 13 -51 13 -53 13 -54 13 -55 12 -57 12 -58 13 -59 12 -62 12 -62 12 -65 11 -66 12 -68 12 -70 11 -71 12 -74 12 -75 11 -78 12 -80 12 -82 11 -84 12 -56 -23 83 -11 82 -12 79 -11 76 -12 75 -11 73 -12 71 -11 68 -12 67 -11 65 -12 64 -11 61 -12 61 -12 58 -12 57 -12 56 -12 54 -12 53 -12 51 -13 50 -13 50 -13 48 -13 47 -13 46 -14 45 -14 45 -14 43 -15 43 -15 43 -15 41 -15 41 -16 41 -16 -4 2zm95 11l-2 1 -2 1 4 -2zm2798 -3770l-100 -6 100 5 -51 151 -52 146 -53 143 -55 140 -55 136 -58 133 -59 131 -61 128 -63 125 -65 123 -67 121 -70 118 -72 117 -75 115 -77 113 -80 112 -84 111 -86 109 -90 108 -93 108 -97 107 -100 106 -105 106 -108 106 -112 106 -116 106 -121 106 -125 106 -130 107 -135 108 -139 109 -144 110 -95 -11 144 -110 139 -108 134 -108 130 -107 125 -106 120 -106 116 -106 112 -105 108 -106 104 -106 100 -106 97 -107 93 -107 90 -108 86 -109 83 -111 80 -111 78 -113 74 -115 72 -117 70 -118 67 -120 65 -123 63 -125 61 -128 59 -130 57 -134 56 -136 54 -140 53 -142 52 -147 51 -150 100 6zm-5599 4213l-89 -14 294 -135 285 -132 276 -130 268 -129 259 -127 252 -126 243 -124 234 -123 227 -123 219 -122 212 -122 203 -121 196 -121 188 -122 182 -122 173 -123 167 -123 160 -124 152 -126 146 -127 139 -128 133 -130 125 -133 120 -134 113 -137 107 -139 100 -143 95 -145 89 -148 83 -152 77 -155 71 -159 100 6 -72 159 -77 156 -83 152 -89 148 -95 146 -101 142 -107 140 -113 137 -120 135 -126 133 -133 130 -139 129 -147 127 -153 126 -160 125 -167 123 -174 123 -182 123 -188 121 -197 122 -204 122 -211 122 -220 122 -227 123 -235 123 -244 125 -251 126 -260 127 -268 129 -277 130 -285 132 -294 135z"/>
  </g>
 </g>
 <g id="FOK_x0020_TYŁ_1">
  <metadata id="CorelCorpID_13Corel-Layer"/>
  <g>
   <path class="fil7" d="M23203 16490l49 3 0 1 -22 17 -21 18 -22 16 -23 16 -22 15 -23 15 -23 14 -24 14 -24 13 -25 14 -25 12 -25 12 -26 12 -27 12 -27 12 -27 11 -29 11 -29 11 -29 10 -31 11 -31 10 -31 11 -33 10 -33 10 -34 11 -35 10 -36 11 -37 11 -37 10 -39 11 -39 12 -41 11 -40 -8 40 -12 40 -11 38 -11 38 -10 36 -11 36 -11 35 -10 33 -10 33 -11 33 -10 31 -10 31 -11 30 -10 29 -11 29 -10 28 -11 27 -11 27 -11 26 -12 25 -12 26 -12 24 -12 24 -13 24 -14 24 -13 23 -14 22 -15 23 -15 22 -16 22 -16 21 -17 22 -18 -1 1zm49 3l0 1 0 0 0 -1zm1297 -2660l-50 -3 50 3 -23 129 -27 126 -30 125 -33 122 -35 119 -38 117 -40 114 -42 111 -43 109 -46 105 -46 103 -48 100 -48 97 -49 94 -50 90 -50 88 -49 84 -50 81 -49 77 -49 74 -47 71 -47 67 -45 63 -44 59 -42 56 -40 52 -38 48 -35 44 -33 40 -30 36 -27 32 -24 27 -49 -3 24 -28 27 -32 30 -36 33 -40 35 -44 38 -48 40 -52 42 -55 44 -60 45 -63 46 -67 48 -70 48 -74 50 -77 49 -81 50 -84 50 -88 49 -90 49 -94 49 -97 47 -100 47 -102 45 -106 44 -109 41 -111 40 -114 38 -117 35 -119 33 -122 30 -124 27 -126 23 -129 50 2zm-50 -3l84 -198 -34 201 -50 -3zm-2600 3158l-48 -6 120 -77 116 -77 113 -76 109 -77 107 -77 103 -77 101 -78 97 -78 95 -79 92 -80 90 -82 87 -83 86 -84 83 -86 81 -88 79 -90 77 -92 75 -95 74 -97 72 -100 71 -103 70 -106 69 -110 67 -112 66 -117 66 -120 65 -124 64 -128 64 -133 63 -137 63 -142 63 -147 50 3 -63 147 -63 142 -63 137 -64 132 -64 129 -65 124 -66 120 -67 117 -67 113 -69 109 -69 106 -71 103 -73 100 -74 98 -75 94 -77 93 -79 90 -81 88 -84 86 -85 85 -87 82 -90 82 -93 80 -95 80 -97 78 -101 78 -103 77 -107 77 -109 77 -113 76 -117 77 -119 78z"/>
  </g>
 </g>
 <g id="DATA">
  <metadata id="CorelCorpID_14Corel-Layer"/>
  <path class="fil7" d="M8316 18123l22 -106c102,-45 182,-97 238,-156l72 0 -127 609 -121 0 88 -419c-24,16 -53,30 -85,43 -33,14 -62,23 -87,29z"/>
  <path id="1" class="fil7" d="M8773 17981l22 -109 401 0 -18 85c-26,20 -54,51 -84,91 -31,41 -59,87 -85,138 -26,50 -47,98 -64,144 -23,63 -37,109 -42,140l-113 0c5,-31 17,-72 35,-125 23,-65 51,-128 85,-189 34,-61 74,-119 122,-175l-259 0z"/>
  <polygon id="2" class="fil7" points="9449,18195 9679,18195 9656,18309 9426,18309 "/>
  <path id="3" class="fil7" d="M10133 18052l-116 -17c9,-56 31,-99 65,-129 35,-30 77,-45 129,-45 57,0 101,15 133,46 32,30 49,69 49,117 0,24 -5,47 -15,72 -10,24 -26,49 -49,76 -16,18 -43,45 -80,79 -37,34 -61,58 -73,70 -12,13 -24,26 -35,40l210 0 -22 109 -368 0c4,-30 12,-58 26,-85 14,-27 30,-52 51,-75 20,-23 57,-61 111,-112 41,-40 67,-65 77,-77 20,-21 33,-40 40,-56 7,-15 11,-30 11,-42 0,-21 -6,-37 -18,-50 -12,-13 -27,-19 -46,-19 -18,0 -35,7 -49,21 -14,15 -24,40 -31,77z"/>
  <path id="4" class="fil7" d="M10641 18346l-238 0 20 -98 329 -385 102 0 -80 383 74 0 -21 100 -74 0 -26 124 -112 0 26 -124zm21 -100l40 -189 -160 189 120 0z"/>
  <polygon id="5" class="fil7" points="10912,18355 11030,18355 11007,18470 10889,18470 "/>
  <path id="6" class="fil7" d="M11139 18273c0,-61 11,-123 31,-186 26,-76 58,-133 98,-170 40,-37 84,-56 133,-56 49,0 90,18 121,53 32,36 48,88 48,156 0,62 -12,127 -35,197 -23,69 -54,122 -93,158 -40,37 -84,56 -133,56 -49,0 -90,-18 -122,-54 -32,-35 -48,-87 -48,-154zm116 24c0,33 6,56 16,69 11,13 24,20 41,20 22,0 42,-10 59,-31 23,-27 44,-81 61,-162 15,-63 22,-114 22,-151 0,-31 -6,-53 -17,-66 -10,-13 -24,-20 -40,-20 -21,0 -40,10 -57,30 -24,29 -45,81 -62,155 -15,64 -23,116 -23,156z"/>
  <path id="7" class="fil7" d="M11739 18136c-21,-14 -37,-30 -48,-49 -10,-18 -15,-38 -15,-61 0,-26 7,-52 22,-79 15,-26 37,-48 67,-63 29,-15 63,-23 100,-23 54,0 96,14 127,42 30,28 45,64 45,107 0,30 -8,57 -25,79 -18,22 -43,41 -77,56 24,15 43,34 55,55 12,22 18,47 18,75 0,45 -14,87 -43,125 -43,54 -101,81 -174,81 -54,0 -97,-16 -129,-48 -33,-31 -49,-72 -49,-120 0,-41 11,-77 34,-109 22,-32 53,-55 92,-68zm45 -102c0,19 6,35 17,46 12,12 27,18 46,18 21,0 39,-8 56,-24 16,-16 24,-35 24,-57 0,-19 -6,-35 -18,-47 -12,-12 -27,-18 -46,-18 -21,0 -40,8 -56,24 -15,15 -23,35 -23,58zm-53 281c0,22 7,40 19,53 12,13 28,20 48,20 31,0 54,-14 71,-41 17,-27 25,-57 25,-88 0,-21 -6,-38 -19,-51 -13,-13 -29,-19 -49,-19 -25,0 -47,11 -66,34 -19,23 -29,54 -29,92z"/>
  <polygon id="8" class="fil7" points="12089,18355 12207,18355 12184,18470 12066,18470 "/>
  <path id="9" class="fil7" d="M12487 18052l-116 -17c9,-56 31,-99 65,-129 35,-30 77,-45 129,-45 57,0 101,15 133,46 32,30 49,69 49,117 0,24 -5,47 -15,72 -10,24 -27,49 -49,76 -16,18 -43,45 -80,79 -37,34 -61,58 -73,70 -12,13 -24,26 -35,40l210 0 -22 109 -368 0c4,-30 12,-58 26,-85 14,-27 30,-52 51,-75 20,-23 57,-61 111,-112 41,-40 67,-65 77,-77 20,-21 33,-40 40,-56 7,-15 11,-30 11,-42 0,-21 -6,-37 -18,-50 -12,-13 -27,-19 -46,-19 -18,0 -35,7 -49,21 -14,15 -24,40 -31,77z"/>
  <path id="10" class="fil7" d="M12787 18273c0,-61 11,-123 31,-186 26,-76 58,-133 98,-170 40,-37 84,-56 133,-56 49,0 89,18 121,53 32,36 47,88 47,156 0,62 -11,127 -34,197 -23,69 -54,122 -94,158 -39,37 -83,56 -132,56 -49,0 -90,-18 -122,-54 -32,-35 -48,-87 -48,-154zm116 24c0,33 6,56 16,69 11,13 24,20 41,20 22,0 42,-10 59,-31 23,-27 43,-81 61,-162 14,-63 21,-114 21,-151 0,-31 -5,-53 -16,-66 -10,-13 -24,-20 -41,-20 -21,0 -39,10 -56,30 -24,29 -45,81 -62,155 -15,64 -23,116 -23,156z"/>
  <path id="11" class="fil7" d="M13428 18052l-116 -17c10,-56 32,-99 66,-129 34,-30 77,-45 129,-45 56,0 101,15 133,46 32,30 48,69 48,117 0,24 -5,47 -15,72 -10,24 -26,49 -48,76 -17,18 -43,45 -80,79 -37,34 -62,58 -74,70 -12,13 -23,26 -34,40l210 0 -22 109 -368 0c3,-30 12,-58 26,-85 13,-27 30,-52 51,-75 20,-23 57,-61 111,-112 41,-40 66,-65 77,-77 19,-21 33,-40 40,-56 7,-15 10,-30 10,-42 0,-21 -6,-37 -18,-50 -11,-13 -27,-19 -45,-19 -19,0 -35,7 -49,21 -14,15 -24,40 -32,77z"/>
  <path id="12" class="fil7" d="M13729 18297l116 -10c0,5 0,9 0,12 0,28 6,49 18,63 13,14 29,21 50,21 28,0 53,-13 76,-40 23,-27 35,-64 35,-111 0,-29 -7,-50 -20,-64 -13,-15 -30,-22 -52,-22 -15,0 -31,4 -45,11 -15,7 -29,18 -42,32l-98 -7 92 -310 305 0 -22 108 -201 0 -28 94c11,-5 23,-9 35,-12 11,-3 23,-4 34,-4 47,0 85,16 115,47 29,31 44,73 44,125 0,42 -10,84 -31,124 -21,41 -50,72 -87,94 -37,22 -75,33 -116,33 -51,0 -94,-17 -127,-50 -33,-34 -50,-78 -51,-134z"/>
  <g>
   <polygon class="fil13" points="22626,19719 10561,21412 9502,20354 21673,18520 "/>
   <path class="fil11" d="M10536 21230l55 -928 244 -36c67,-10 111,-15 130,-16 38,-2 72,1 103,8 31,7 60,19 87,37 28,17 52,38 74,65 21,26 40,58 55,94 15,37 26,77 32,122 15,97 9,186 -17,267 -26,80 -64,147 -114,199 -38,41 -89,74 -155,101 -37,15 -96,28 -176,40l-318 47zm194 -176l94 -14c68,-11 117,-22 147,-35 29,-13 55,-33 77,-60 32,-38 56,-87 73,-146 17,-59 20,-126 9,-201 -10,-64 -28,-110 -53,-139 -25,-29 -54,-47 -86,-53 -23,-4 -61,-2 -116,6l-108 16 -37 626zm1209 -32l-185 28 21 -362 -329 -512 198 -29 150 237c35,57 60,98 73,124 11,-29 24,-60 40,-92l67 -132 99 -201 215 -32 -329 628 -20 343zm414 -357l175 -35c10,55 26,91 45,108 32,28 84,37 157,26 61,-9 103,-26 127,-52 24,-26 33,-54 29,-85 -4,-26 -19,-47 -44,-63 -17,-11 -63,-27 -137,-46 -74,-20 -129,-38 -164,-54 -35,-15 -64,-38 -88,-68 -23,-29 -38,-66 -44,-109 -11,-76 7,-143 54,-202 48,-58 123,-94 227,-110 106,-15 191,-3 256,38 66,41 107,103 125,184l-176 34c-11,-42 -31,-73 -61,-92 -30,-19 -71,-24 -123,-17 -51,8 -86,22 -105,44 -20,21 -27,45 -23,73 4,26 17,45 39,59 23,15 71,31 144,51 110,30 181,56 213,80 48,35 77,84 87,149 11,79 -10,152 -64,217 -55,66 -138,107 -250,124 -77,11 -146,8 -207,-10 -60,-17 -106,-47 -136,-90 -30,-42 -49,-94 -56,-154zm1289 105l-185 28 46 -772 -264 39 8 -155 708 -105 -7 155 -260 38 -46 772zm888 -334l-357 53 -80 215 -191 28 374 -975 209 -31 279 878 -176 26 -58 -194zm-45 -147l-107 -354 -145 391 252 -37zm1154 186l-172 25 -333 -568 -37 623 -172 25 56 -927 172 -25 333 565 36 -620 172 -25 -55 927zm218 -328l174 -36c11,56 26,92 46,109 32,28 84,37 157,26 60,-9 102,-27 126,-52 24,-26 34,-54 29,-85 -4,-27 -18,-48 -43,-63 -18,-11 -64,-27 -138,-47 -74,-20 -129,-37 -164,-53 -35,-16 -64,-38 -87,-68 -23,-30 -38,-66 -45,-110 -11,-76 7,-143 55,-201 47,-58 123,-95 227,-110 105,-16 191,-3 256,38 65,41 107,102 124,184l-176 34c-10,-42 -31,-73 -61,-92 -30,-19 -71,-25 -123,-17 -51,8 -86,22 -105,43 -19,22 -27,46 -23,73 4,26 17,46 40,60 22,14 70,31 143,51 110,29 181,56 214,80 48,34 77,84 86,148 12,80 -9,152 -64,218 -54,66 -138,107 -250,123 -77,12 -146,9 -206,-9 -61,-17 -106,-47 -136,-90 -30,-43 -49,-94 -56,-154zm1214 -146l170 -40c1,8 1,14 2,18 6,42 20,72 42,90 21,18 47,25 77,20 42,-6 77,-32 105,-77 28,-44 37,-102 27,-173 -7,-41 -21,-71 -43,-90 -23,-18 -50,-25 -82,-20 -23,3 -45,12 -65,25 -20,14 -39,33 -56,58l-146 10 69 -480 452 -67 -9 166 -299 44 -21 145c17,-10 33,-19 50,-25 16,-7 33,-11 50,-14 69,-10 129,5 180,45 51,39 83,98 94,176 9,62 3,126 -19,191 -22,65 -58,117 -108,158 -50,40 -105,65 -166,74 -76,11 -143,-4 -200,-46 -56,-43 -91,-105 -104,-188zm693 -139c-13,-90 -11,-184 6,-282 21,-119 56,-211 107,-275 51,-64 113,-101 185,-112 73,-10 137,7 191,53 55,46 90,119 105,220 14,92 11,192 -8,300 -19,107 -54,193 -104,256 -50,63 -112,101 -185,111 -73,11 -137,-6 -192,-52 -55,-46 -90,-119 -105,-219zm178 11c7,48 20,81 38,98 19,18 40,25 65,21 33,-5 60,-25 81,-59 28,-45 47,-130 56,-253 6,-98 6,-175 -2,-230 -7,-45 -20,-76 -39,-94 -18,-17 -40,-25 -65,-21 -31,5 -57,24 -77,57 -29,49 -49,130 -58,244 -8,98 -8,177 1,237zm521 -114c-13,-91 -12,-185 5,-282 21,-119 57,-211 108,-275 51,-64 112,-101 185,-112 72,-11 136,7 191,53 55,46 90,119 105,220 13,92 10,192 -8,299 -20,108 -54,193 -104,257 -50,63 -112,100 -185,111 -73,11 -137,-7 -192,-53 -55,-46 -90,-118 -105,-218zm177 10c8,49 20,82 39,99 19,17 40,24 65,21 33,-5 60,-25 81,-59 28,-46 47,-130 55,-253 7,-98 7,-175 -2,-230 -6,-45 -19,-77 -38,-94 -19,-18 -40,-25 -65,-21 -31,4 -57,24 -77,57 -29,49 -49,130 -59,243 -8,98 -7,177 1,237zm1605 25l-172 25 -333 -568 -37 623 -172 25 56 -927 172 -26 332 566 37 -620 172 -26 -55 928zm222 -700l167 -24 -3 80c55,-73 118,-114 190,-125 49,-7 88,-2 118,14 30,17 51,43 63,77 18,-36 46,-68 85,-96 39,-28 82,-46 127,-53 52,-7 95,1 128,25 33,24 53,59 60,106 3,22 3,62 -1,118l-26 410 -176 26 26 -409c3,-52 4,-81 3,-88 -2,-19 -10,-32 -23,-42 -12,-9 -29,-12 -51,-8 -45,6 -81,35 -109,87 -20,37 -33,100 -38,187l-18 305 -176 26 24 -408c3,-47 3,-77 1,-90 -3,-18 -11,-31 -24,-40 -13,-10 -30,-13 -50,-10 -20,3 -39,12 -57,26 -19,15 -35,33 -47,56 -13,22 -22,50 -28,83 -3,16 -7,51 -11,105l-18 309 -176 26 40 -673z"/>
   <path class="fil7" d="M19285 18471l-113 0 10 -47c-21,20 -42,35 -63,44 -21,9 -45,14 -71,14 -45,0 -82,-16 -110,-47 -28,-31 -43,-77 -43,-138 0,-71 21,-134 61,-191 40,-57 93,-86 159,-86 60,0 105,24 135,71l49 -227 119 0 -133 607zm-274 -179c0,32 8,57 24,74 16,18 35,27 59,27 22,0 42,-8 61,-22 19,-15 34,-38 45,-68 11,-31 17,-60 17,-88 0,-32 -9,-58 -26,-77 -17,-20 -37,-30 -60,-30 -35,0 -64,20 -87,58 -22,39 -33,81 -33,126z"/>
   <path id="1" class="fil7" d="M19414 18288c0,-81 23,-146 69,-195 46,-48 106,-73 181,-73 64,0 115,18 151,54 37,36 55,84 55,145 0,71 -23,133 -68,185 -46,52 -107,78 -183,78 -41,0 -78,-9 -110,-25 -32,-17 -55,-40 -71,-71 -16,-30 -24,-63 -24,-98zm338 -85c0,-28 -8,-51 -24,-68 -17,-17 -38,-26 -64,-26 -25,0 -48,8 -68,24 -19,16 -35,39 -46,70 -11,30 -16,58 -16,84 0,32 8,57 25,75 17,19 39,28 65,28 32,0 59,-14 81,-42 31,-40 47,-88 47,-145z"/>
   <path id="2" class="fil7" d="M20010 18031l118 0 -58 261c-7,31 -11,51 -11,59 0,12 4,23 13,32 8,10 19,14 32,14 10,0 19,-2 28,-6 10,-4 19,-11 29,-19 9,-9 18,-18 26,-29 8,-11 15,-25 22,-43 4,-13 10,-33 16,-59l47 -210 119 0 -100 440 -111 0 12 -57c-45,45 -93,68 -146,68 -33,0 -59,-11 -78,-31 -19,-21 -29,-49 -29,-84 0,-15 5,-45 16,-91l55 -245z"/>
   <path id="3" class="fil7" d="M20427 18471l127 -607 119 0 -43 202c21,-17 42,-28 61,-35 19,-7 40,-11 62,-11 46,0 84,16 112,47 28,31 42,76 42,136 0,40 -7,79 -20,117 -13,37 -31,68 -53,92 -22,23 -45,41 -69,52 -24,12 -50,18 -76,18 -63,0 -109,-28 -139,-82l-15 71 -108 0zm160 -179c0,30 8,54 25,73 17,18 36,28 59,28 20,0 39,-7 57,-22 18,-14 33,-37 45,-69 12,-32 19,-64 19,-96 0,-31 -9,-56 -25,-74 -16,-18 -36,-27 -59,-27 -30,0 -55,14 -77,42 -30,38 -44,86 -44,145z"/>
   <polygon id="4" class="fil7" points="20947,18471 21074,17864 21193,17864 21066,18471 "/>
   <path id="5" class="fil7" d="M21611 18288l-298 0c-1,4 -1,8 -1,11 0,29 9,53 26,71 16,18 37,27 61,27 40,0 71,-20 93,-61l106 18c-21,42 -48,74 -83,96 -35,21 -74,32 -117,32 -59,0 -107,-19 -144,-56 -37,-38 -56,-88 -56,-149 0,-61 17,-114 51,-161 45,-64 110,-96 194,-96 54,0 97,17 129,50 31,34 47,80 47,140 0,29 -3,55 -8,78zm-100 -72c0,-6 0,-9 0,-12 0,-33 -7,-58 -22,-74 -14,-17 -34,-25 -59,-25 -24,0 -46,9 -66,28 -19,19 -32,46 -39,83l186 0z"/>
   <path id="6" class="fil7" d="M22010 18471l-119 0 127 -607 118 0 -45 217c27,-22 52,-37 76,-47 23,-9 48,-14 75,-14 36,0 65,11 85,31 21,21 32,48 32,82 -1,17 -5,44 -13,81l-55 257 -119 0 57 -262c6,-28 9,-46 9,-54 0,-15 -4,-27 -14,-37 -9,-9 -21,-13 -37,-13 -21,0 -40,7 -59,21 -24,18 -42,40 -55,67 -7,15 -16,49 -27,104l-36 174z"/>
   <path id="7" class="fil7" d="M22574 18154l-116 -10c13,-39 37,-69 70,-91 33,-22 76,-33 131,-33 56,0 98,12 125,34 27,23 41,51 41,84 0,13 -1,27 -4,42 -2,15 -10,54 -24,118 -12,52 -18,89 -18,110 0,19 3,40 10,63l-116 0c-4,-16 -7,-33 -8,-50 -18,19 -38,34 -60,45 -23,10 -46,16 -69,16 -36,0 -66,-12 -90,-36 -23,-24 -35,-55 -35,-93 0,-42 13,-75 39,-101 26,-25 73,-40 140,-45 56,-5 94,-11 113,-17 5,-17 7,-30 7,-40 0,-13 -5,-24 -15,-32 -10,-9 -25,-13 -45,-13 -22,0 -38,4 -51,13 -12,8 -20,20 -25,36zm113 111c-7,2 -16,4 -28,5 -60,8 -99,18 -117,32 -13,10 -19,24 -19,41 0,14 4,26 14,35 10,10 23,15 40,15 18,0 35,-5 50,-13 16,-9 28,-20 36,-34 8,-14 15,-36 21,-65l3 -16z"/>
   <path id="8" class="fil7" d="M22971 18031l113 0 -11 58c28,-25 55,-42 79,-53 25,-10 51,-16 78,-16 36,0 65,11 86,32 21,21 31,49 31,83 0,16 -5,45 -15,87l-53 249 -119 0 54 -249c8,-37 12,-60 12,-67 0,-16 -4,-28 -13,-37 -9,-9 -22,-13 -38,-13 -18,0 -37,7 -59,22 -21,15 -38,34 -50,58 -9,17 -20,52 -31,105l-37 181 -119 0 92 -440z"/>
   <path id="9" class="fil7" d="M23800 18471l-112 0 9 -47c-21,20 -42,35 -63,44 -21,9 -44,14 -71,14 -45,0 -82,-16 -110,-47 -28,-31 -42,-77 -42,-138 0,-71 20,-134 60,-191 40,-57 93,-86 160,-86 59,0 104,24 134,71l50 -227 118 0 -133 607zm-274 -179c0,32 8,57 24,74 16,18 36,27 59,27 22,0 42,-8 61,-22 19,-15 34,-38 45,-68 11,-31 17,-60 17,-88 0,-32 -9,-58 -26,-77 -17,-20 -37,-30 -60,-30 -35,0 -64,20 -86,58 -23,39 -34,81 -34,126z"/>
   <path id="10" class="fil7" d="M24339 18288l-298 0c0,4 0,8 0,11 0,29 8,53 25,71 17,18 38,27 62,27 39,0 70,-20 93,-61l106 18c-21,42 -49,74 -84,96 -34,21 -73,32 -116,32 -59,0 -107,-19 -144,-56 -38,-38 -56,-88 -56,-149 0,-61 17,-114 50,-161 46,-64 111,-96 195,-96 54,0 96,17 128,50 32,34 48,80 48,140 0,29 -3,55 -9,78zm-100 -72c1,-6 1,-9 1,-12 0,-33 -8,-58 -22,-74 -15,-17 -34,-25 -59,-25 -25,0 -47,9 -66,28 -20,19 -33,46 -40,83l186 0z"/>
   <path id="11" class="fil7" d="M24788 18471l-112 0 9 -47c-21,20 -42,35 -63,44 -21,9 -44,14 -70,14 -46,0 -83,-16 -111,-47 -28,-31 -42,-77 -42,-138 0,-71 20,-134 60,-191 40,-57 94,-86 160,-86 60,0 104,24 134,71l50 -227 118 0 -133 607zm-274 -179c0,32 8,57 24,74 16,18 36,27 59,27 22,0 42,-8 61,-22 19,-15 34,-38 45,-68 11,-31 17,-60 17,-88 0,-32 -9,-58 -26,-77 -17,-20 -37,-30 -60,-30 -35,0 -64,20 -86,58 -23,39 -34,81 -34,126z"/>
  </g>
 </g>
</svg>
